<?xml version="1.0" encoding="UTF-8"?>
<svg xmlns="http://www.w3.org/2000/svg" version="1.1" viewBox="0 0 520 149.6">
  <defs>
    <style>
      .cls-1 {
        fill: #194f9e;
      }

      .cls-2 {
        fill: #ffde5a;
      }
    </style>
  </defs>
  <!-- Generator: Adobe Illustrator 28.7.3, SVG Export Plug-In . SVG Version: 1.2.0 Build 164)  -->
  <g>
    <g id="Camada_1">
      <g>
        <path class="cls-1" d="M48.4,23.4h1.5c6.1,0,12.2,1.5,18.1,4.4,1.9,1,3.8,2.2,5.7,3.6.9.6,2.3,1.9,4.4,3.7,2.1,2.3,3.6,4.1,4.5,5.5.8,1.2,1.5,2.4,2.1,3.6-3.1,1.5-7.8,3.8-14.1,7-.4-1-1.5-2.4-3.1-4.2-5-5.3-11.1-7.9-18.5-7.9s-13.1,2.2-17.5,6.5c-1.7,1.7-2.8,3.2-3.2,4.4-1.3,2.4-1.9,4.9-1.9,7.6v.5c0,3.8,1.4,6.7,4.1,8.7,1.3,1,2.5,1.7,3.7,2.3,2.7,1.6,6.8,3.2,12.3,4.7,4.2,1.2,9.2,2.4,14.9,3.6,3.2,1,5.9,2,8.1,3.1,2.1,1,4.3,2.3,6.6,4,1.9,1.7,3.7,3.5,5.2,5.3,4.3,5.8,6.5,12.2,6.5,19.3v.3c0,6.9-2.1,13.5-6.3,19.8-.8,1.1-2.1,2.6-3.9,4.5-2.5,2.3-4.5,3.9-6,4.9-1.7,1.1-3.6,2-5.7,2.9-5.7,2.4-11.6,3.6-17.6,3.6-9.4,0-18-2.8-25.7-8.3-1.3-1.1-2.8-2.3-4.4-3.7-2.2-2.2-3.7-3.8-4.5-5-1.6-2.3-2.9-4.3-3.9-6-1-1.8-1.5-2.9-1.5-3.2,3.1-1.5,7.8-3.7,14.1-6.6.9,1.9,2.1,3.9,3.6,6,.8,1,1.8,2.2,3.2,3.7,2.1,1.8,3.7,3.1,5,3.9,4.4,2.4,9,3.6,13.8,3.6h.6c4.8,0,9.3-1.2,13.8-3.6,1.2-.8,2.4-1.7,3.7-2.8,1.5-1.5,2.6-2.9,3.2-4,1.8-3.1,2.8-6.4,2.8-9.9,0-5.5-2.3-9.9-7-13.1-1.3-.9-2.5-1.5-3.7-1.9-1.8-.9-4.8-1.7-8.7-2.4-11.3-2.6-19.6-5.2-24.8-7.9-11.4-5.7-17.2-14.3-17.2-25.7s2.5-14.7,7.4-20.9c1.6-2.1,3.3-3.8,5.2-5.2,2.3-1.6,4.2-2.9,5.8-3.7,1.9-1,4.2-1.9,6.8-2.8,4.1-1.2,8.3-1.8,12.5-1.8h0Z"/>
        <path class="cls-1" d="M135.2,64.3h2.3c7.9,0,15.5,3.2,22.8,9.5,3.6,3.5,6,6.5,7.3,9.1,3.9,6.9,5.8,14.2,5.8,21.9v2.4c0,1.5,0,2.3-.2,2.3h-58.1c1.3,5.7,3.4,10,6.3,13,4.3,4.8,9.3,7.1,14.9,7.1s12.9-3.6,17.6-10.7c.9-1.8,1.4-2.8,1.5-2.8,9.4,4.2,14.1,6.4,14.1,6.5-.8,1.9-2.4,4.8-5,8.4-7.9,9.4-17.2,14.1-28,14.1h-.5c-11,0-20.6-5-28.7-14.9-5.5-7.7-8.3-16.1-8.3-25.3v-.3c0-12.6,4.9-23.3,14.6-32.1,7.1-5.5,14.3-8.3,21.5-8.3h0ZM116.5,94.8h39.4v-.2c-.9-2.7-3-5.8-6.3-9.2-4.1-3.6-8.6-5.3-13.4-5.3-7.5,0-13.5,3.9-18.3,11.8-.2.6-.6,1.6-1.3,2.9h0Z"/>
        <path class="cls-1" d="M226.2,65.1h2.1c5.4,0,10.9,1.6,16.5,4.7v.2c-2.2,10.3-3.4,15.6-3.7,16-5.2-3.3-9.8-5-13.8-5h-1.3c-5.2,0-9.7,1.9-13.6,5.7-3,3.6-4.5,10.4-4.5,20.6v36h-15.2c0-.1-.1-.2-.3-.3v-76.1h15.5v5.8c6-5,12.1-7.4,18.3-7.4h0Z"/>
        <path class="cls-1" d="M289.1,64.3h2.3c7.9,0,15.5,3.2,22.8,9.5,3.6,3.5,6,6.5,7.3,9.1,3.9,6.9,5.8,14.2,5.8,21.9v2.4c0,1.5,0,2.3-.2,2.3h-58.1c1.3,5.7,3.4,10,6.3,13,4.3,4.8,9.3,7.1,14.9,7.1s12.9-3.6,17.6-10.7c.9-1.8,1.4-2.8,1.5-2.8,9.4,4.2,14.1,6.4,14.1,6.5-.8,1.9-2.4,4.8-5,8.4-7.9,9.4-17.2,14.1-28,14.1h-.5c-11,0-20.6-5-28.7-14.9-5.5-7.7-8.3-16.1-8.3-25.3v-.3c0-12.6,4.9-23.3,14.6-32.1,7.1-5.5,14.3-8.3,21.5-8.3h0ZM270.5,94.8h39.4v-.2c-.9-2.7-3-5.8-6.3-9.2-4.1-3.6-8.6-5.3-13.4-5.3-7.5,0-13.5,3.9-18.3,11.8-.2.6-.6,1.6-1.3,2.9Z"/>
        <path class="cls-1" d="M381.6,65.6h.8c13.9,0,23.9,5.3,30,15.9,2,4.1,3.1,9,3.1,14.6v47l-.2.2h-15.2l-.2-.2v-47.1c0-6.6-2.8-11-8.3-13.1-2.4-1.1-5.4-1.6-9.1-1.6h-1.3c-6.5,0-11.1,1-13.9,3.1-3.6,2.2-5.3,6.2-5.3,12.1v46.6l-.2.2h-15.2l-.3-.2v-76.8c.1,0,.2,0,.3-.2h15.2l.2.2v4.4c2.8-1.5,6.4-2.9,10.8-4.2,2.4-.5,5.3-.8,8.7-.8h0Z"/>
        <path class="cls-1" d="M473.9,64.3c8.7,0,16.8,2.9,24.1,8.6,1,.8,2.4,2.1,4.4,4.1,3.7,4.1,6.3,8.4,7.9,12.8,1.8,4.9,2.8,9.9,2.8,15.2s-1.6,13.3-4.9,19.4c-1.2,2.2-2.7,4.4-4.5,6.8-2.2,2.4-3.9,4-5.2,5-1.5,1.2-2.9,2.2-4.2,3.1-6.4,3.9-13.1,5.8-20.1,5.8h-.7c-7.3,0-14.4-2.2-21-6.5-1.3-1-2.5-1.9-3.6-2.8-2.2-1.7-3.7-3.2-4.5-4.5-1.1-1.3-2.2-2.7-3.2-4.2-1-1.7-1.9-3.4-2.8-5-2.5-5.6-3.7-11.2-3.7-16.7v-1.3c0-6,1.5-12.1,4.5-18.1.9-1.7,1.9-3.5,3.1-5.2.9-1.3,2.2-3,4-5,2.7-2.4,4.6-3.9,5.7-4.5,6.7-4.6,14-7,21.9-7h0ZM450.2,105c0,5.8,1.9,11.2,5.8,16,1.6,1.8,2.9,3,3.9,3.6,4.2,3.4,8.8,5,13.9,5s11.6-2.4,16.3-7.1c1.8-1.9,3.1-3.7,3.9-5.2,2.3-3.9,3.4-8,3.4-12.3v-.2c0-6.3-2.2-11.9-6.5-16.8-1.8-1.9-3-3-3.6-3.2-1-.8-1.8-1.4-2.6-1.8-3.6-1.9-7.2-2.9-11-2.9-5.7,0-11,2.1-15.7,6.3-1.6,1.7-2.7,3-3.1,3.7-3.2,4.4-4.9,9.4-4.9,14.9h0Z"/>
      </g>
      <circle class="cls-2" cx="478.1" cy="31.3" r="14.7"/>
    </g>
  </g>
</svg>