<?xml version="1.0" encoding="UTF-8"?>
<svg xmlns="http://www.w3.org/2000/svg" version="1.1" viewBox="0 0 427 414">
  <defs>
    <style>
      .cls-1 {
        fill: #194f9e;
      }

      .cls-2 {
        fill: #fff;
      }

      .cls-3 {
        fill: none;
      }

      .cls-4 {
        fill: #ffde5a;
      }
    </style>
  </defs>
  <!-- Generator: Adobe Illustrator 28.7.3, SVG Export Plug-In . SVG Version: 1.2.0 Build 164)  -->
  <g>
    <g id="Camada_1">
      <path class="cls-1" d="M216.9,414c-3.2,0-5.3-.1-5.7-.1l1-17.8c.7,0,68.6,3.2,105.4-37.5,20.9-23.1,28.2-56.5,21.6-99.2C323.6,158.9,200.2,14.2,199,12.7L210.6,0c5.3,6.1,129.8,151.2,146.2,256.7,7.5,48.3-1.3,86.6-26.1,114-36.3,40-95.2,43.4-113.9,43.4h0Z"/>
      <path class="cls-1" d="M212.4,414c-18.6,0-77.6-3.3-113.9-43.4-24.8-27.3-33.5-65.7-26-114C88.8,151.4,194.5,18.5,199,12.7l14.4,8.3c-1.1,1.4-107.7,137.8-123.3,238.4-6.6,42.7.6,76,21.6,99.2,36.8,40.7,104.8,37.5,105.4,37.5l1,17.8c-.5,0-2.5.1-5.7.1h0Z"/>
      <polygon class="cls-1" points="218 218.5 205.3 218.5 205.3 8.4 215.4 7.7 218 218.5"/>
      <rect class="cls-1" x="205.3" y="264.1" width="12.8" height="140.9"/>
      <rect class="cls-1" x="78" y="232.4" width="113.4" height="12.8"/>
      <rect class="cls-1" x="237" y="232.4" width="113.4" height="12.8"/>
      <rect class="cls-1" x="5.1" y="236.2" width="56.7" height="5.1"/>
      <rect class="cls-1" x="363.2" y="236.2" width="56.7" height="5.1"/>
      <g>
        <line class="cls-3" x1="226" y1="224.5" x2="304.4" y2="145.1"/>
        <rect class="cls-1" x="209.4" y="182.2" width="111.6" height="5.1" transform="translate(-52.7 243.4) rotate(-45.3)"/>
      </g>
      <g>
        <line class="cls-3" x1="197.3" y1="224.5" x2="125.5" y2="135.3"/>
        <rect class="cls-1" x="158.8" y="122.6" width="5.1" height="114.5" transform="translate(-77.1 141.1) rotate(-38.9)"/>
      </g>
      <g>
        <line class="cls-3" x1="197.3" y1="253" x2="94" y2="357"/>
        <rect class="cls-1" x="72.4" y="302.4" width="146.6" height="5.1" transform="translate(-173.4 193.4) rotate(-45.2)"/>
      </g>
      <g>
        <line class="cls-3" x1="226" y1="253" x2="324.8" y2="363.9"/>
        <rect class="cls-1" x="272.8" y="234.1" width="5.1" height="148.6" transform="translate(-135.4 261.3) rotate(-41.7)"/>
      </g>
      <circle class="cls-4" cx="252.5" cy="143.4" r="14.7"/>
      <circle class="cls-4" cx="164.2" cy="286.5" r="14.7"/>
      <circle class="cls-4" cx="295.8" cy="334.6" r="14.7"/>
      <g>
        <circle class="cls-2" cx="211.7" cy="238.7" r="20.2"/>
        <path class="cls-1" d="M211.7,266.6c-15.4,0-27.9-12.5-27.9-27.9s12.5-27.9,27.9-27.9,27.9,12.5,27.9,27.9-12.5,27.9-27.9,27.9h0ZM211.7,226.2c-6.9,0-12.6,5.6-12.6,12.6s5.6,12.6,12.6,12.6,12.6-5.6,12.6-12.6-5.6-12.6-12.6-12.6Z"/>
      </g>
      <circle class="cls-4" cx="80.7" cy="238.8" r="22.8"/>
      <circle class="cls-4" cx="342.7" cy="237.5" r="23"/>
    </g>
  </g>
</svg>