<?xml version="1.0" encoding="UTF-8"?>
<svg id="Camada_1" xmlns="http://www.w3.org/2000/svg" viewBox="0 0 689.25 414.03">
  <defs>
    <style>
      .cls-1 {
        fill: #fff;
      }

      .cls-2 {
        fill: #194f9e;
      }

      .cls-3 {
        fill: #ffde5a;
      }
    </style>
  </defs>
  <path class="cls-2" d="M433.9,414c-3.25,0-5.28-.1-5.74-.13l1.01-17.83c.67.04,68.61,3.22,105.43-37.47,20.93-23.14,28.19-56.5,21.57-99.16-15.59-100.49-138.94-245.21-140.2-246.67l11.64-12.75c5.29,6.12,129.83,151.17,146.21,256.68,7.49,48.29-1.27,86.63-26.06,113.96-36.29,40.02-95.22,43.36-113.86,43.36Z"/>
  <path class="cls-2" d="M429.35,414.03c-18.64,0-77.56-3.34-113.86-43.36-24.78-27.33-33.55-65.67-26.05-113.96,16.34-105.29,122.03-238.24,126.54-243.96l14.43,8.26c-1.07,1.37-107.71,137.8-123.33,238.44-6.62,42.66.64,76.03,21.57,99.16,36.83,40.7,104.77,37.51,105.44,37.47l1,17.83c-.46.02-2.49.13-5.74.13Z"/>
  <polygon class="cls-2" points="435.04 218.52 422.28 218.52 422.28 8.35 432.41 7.67 435.04 218.52"/>
  <rect class="cls-2" x="422.28" y="264.13" width="12.75" height="140.92"/>
  <rect class="cls-2" x="295.02" y="232.36" width="113.43" height="12.75"/>
  <rect class="cls-2" x="454.05" y="232.36" width="113.43" height="12.75"/>
  <rect class="cls-2" x="222.1" y="236.18" width="56.72" height="5.1"/>
  <rect class="cls-2" x="580.23" y="236.23" width="56.72" height="5.1"/>
  <g>
    <line class="cls-1" x1="443.01" y1="224.5" x2="521.43" y2="145.14"/>
    <rect class="cls-2" x="426.43" y="182.27" width="111.57" height="5.1" transform="translate(11.72 397.72) rotate(-45.32)"/>
  </g>
  <g>
    <line class="cls-1" x1="414.32" y1="224.5" x2="342.47" y2="135.31"/>
    <rect class="cls-2" x="375.84" y="122.64" width="5.1" height="114.53" transform="translate(-29.13 277.21) rotate(-38.86)"/>
  </g>
  <g>
    <line class="cls-1" x1="414.32" y1="252.97" x2="311" y2="356.96"/>
    <rect class="cls-2" x="289.37" y="302.41" width="146.59" height="5.1" transform="translate(-109.28 347.39) rotate(-45.2)"/>
  </g>
  <g>
    <line class="cls-1" x1="443" y1="252.97" x2="541.79" y2="363.91"/>
    <rect class="cls-2" x="489.85" y="234.16" width="5.1" height="148.55" transform="translate(-80.45 405.57) rotate(-41.69)"/>
  </g>
  <circle class="cls-3" cx="469.52" cy="143.37" r="14.75"/>
  <circle class="cls-3" cx="381.21" cy="286.54" r="14.75"/>
  <circle class="cls-3" cx="512.82" cy="334.59" r="14.75"/>
  <g>
    <circle class="cls-1" cx="428.66" cy="238.73" r="20.21"/>
    <path class="cls-2" d="M428.66,266.59c-15.36,0-27.86-12.5-27.86-27.86s12.5-27.86,27.86-27.86,27.86,12.5,27.86,27.86-12.5,27.86-27.86,27.86ZM428.66,226.18c-6.92,0-12.56,5.63-12.56,12.56s5.63,12.56,12.56,12.56,12.56-5.63,12.56-12.56-5.63-12.56-12.56-12.56Z"/>
  </g>
  <circle class="cls-3" cx="297.74" cy="238.78" r="22.8"/>
  <circle class="cls-3" cx="559.68" cy="237.53" r="22.96"/>
</svg>