<?xml version="1.0" encoding="UTF-8"?>
<svg id="Camada_1" xmlns="http://www.w3.org/2000/svg" viewBox="0 0 689.25 328.2">
  <defs>
    <style>
      .cls-1 {
        fill: #fff;
      }

      .cls-2 {
        fill: #ffde5a;
      }
    </style>
  </defs>
  <g>
    <path class="cls-1" d="M213.22,206.44h1.46c6.15,0,12.2,1.46,18.13,4.37,1.94.97,3.83,2.16,5.67,3.56.86.65,2.32,1.89,4.37,3.72,2.05,2.27,3.56,4.1,4.53,5.5.75,1.19,1.46,2.38,2.1,3.56-3.13,1.51-7.83,3.83-14.09,6.96-.43-.97-1.46-2.37-3.08-4.21-4.97-5.29-11.12-7.93-18.46-7.93s-13.06,2.16-17.49,6.48c-1.73,1.73-2.81,3.19-3.24,4.37-1.29,2.38-1.94,4.91-1.94,7.61v.49c0,3.78,1.35,6.69,4.05,8.74,1.3.97,2.54,1.73,3.72,2.27,2.7,1.62,6.8,3.19,12.31,4.7,4.21,1.19,9.17,2.38,14.9,3.56,3.24.97,5.94,2,8.1,3.08,2.05.97,4.26,2.32,6.64,4.05,1.94,1.73,3.67,3.51,5.18,5.34,4.32,5.83,6.48,12.25,6.48,19.27v.32c0,6.91-2.1,13.49-6.31,19.75-.76,1.08-2.05,2.59-3.89,4.53-2.48,2.27-4.48,3.89-5.99,4.86-1.73,1.08-3.62,2.05-5.67,2.91-5.72,2.37-11.6,3.56-17.65,3.56-9.39,0-17.97-2.75-25.74-8.26-1.3-1.08-2.75-2.32-4.37-3.72-2.16-2.16-3.67-3.83-4.53-5.02-1.62-2.27-2.91-4.26-3.89-5.99-.97-1.83-1.46-2.91-1.46-3.24,3.13-1.51,7.82-3.72,14.09-6.64.86,1.94,2.05,3.94,3.56,5.99.75.97,1.83,2.21,3.24,3.72,2.05,1.84,3.72,3.13,5.02,3.89,4.42,2.38,9.01,3.56,13.76,3.56h.65c4.75,0,9.34-1.19,13.76-3.56,1.19-.75,2.43-1.67,3.72-2.75,1.51-1.51,2.59-2.86,3.24-4.05,1.83-3.13,2.75-6.42,2.75-9.88,0-5.5-2.32-9.88-6.96-13.12-1.3-.86-2.54-1.51-3.72-1.94-1.84-.86-4.75-1.67-8.74-2.43-11.33-2.59-19.59-5.23-24.77-7.93-11.44-5.72-17.16-14.3-17.16-25.74,0-7.77,2.48-14.73,7.45-20.89,1.62-2.05,3.34-3.78,5.18-5.18,2.27-1.62,4.21-2.86,5.83-3.72,1.94-.97,4.21-1.89,6.8-2.75,4.1-1.19,8.26-1.78,12.47-1.78Z"/>
    <path class="cls-1" d="M300.01,247.41h2.27c7.88,0,15.49,3.18,22.83,9.55,3.56,3.46,5.99,6.48,7.29,9.07,3.89,6.91,5.83,14.2,5.83,21.86v2.43c0,1.51-.06,2.27-.16,2.27h-58.13c1.3,5.72,3.4,10.04,6.31,12.95,4.32,4.75,9.28,7.12,14.9,7.12,7.02,0,12.9-3.56,17.65-10.69.86-1.83,1.35-2.75,1.46-2.75,9.39,4.21,14.09,6.37,14.09,6.48-.76,1.94-2.43,4.75-5.02,8.42-7.88,9.39-17.22,14.09-28.01,14.09h-.49c-11.01,0-20.56-4.96-28.66-14.9-5.51-7.66-8.26-16.08-8.26-25.26v-.32c0-12.63,4.86-23.32,14.57-32.06,7.12-5.51,14.3-8.26,21.53-8.26ZM281.39,277.85h39.35v-.16c-.87-2.7-2.97-5.77-6.31-9.23-4.1-3.56-8.58-5.34-13.44-5.34-7.45,0-13.55,3.94-18.3,11.82-.22.65-.65,1.62-1.3,2.91Z"/>
    <path class="cls-1" d="M391.01,248.22h2.1c5.4,0,10.9,1.57,16.52,4.7v.16c-2.16,10.26-3.4,15.6-3.72,16.03-5.18-3.34-9.77-5.02-13.76-5.02h-1.3c-5.18,0-9.71,1.89-13.6,5.67-3.02,3.56-4.53,10.42-4.53,20.56v35.95h-15.22c0-.11-.11-.21-.32-.32v-76.1h15.54v5.83c6.04-4.96,12.14-7.45,18.3-7.45Z"/>
    <path class="cls-1" d="M453.99,247.41h2.27c7.88,0,15.49,3.18,22.83,9.55,3.56,3.46,5.99,6.48,7.29,9.07,3.89,6.91,5.83,14.2,5.83,21.86v2.43c0,1.51-.06,2.27-.16,2.27h-58.13c1.29,5.72,3.4,10.04,6.31,12.95,4.32,4.75,9.28,7.12,14.9,7.12,7.02,0,12.9-3.56,17.65-10.69.86-1.83,1.35-2.75,1.46-2.75,9.39,4.21,14.09,6.37,14.09,6.48-.76,1.94-2.43,4.75-5.02,8.42-7.88,9.39-17.22,14.09-28.01,14.09h-.48c-11.01,0-20.56-4.96-28.66-14.9-5.51-7.66-8.26-16.08-8.26-25.26v-.32c0-12.63,4.86-23.32,14.57-32.06,7.12-5.51,14.3-8.26,21.53-8.26ZM435.37,277.85h39.35v-.16c-.87-2.7-2.97-5.77-6.32-9.23-4.1-3.56-8.58-5.34-13.44-5.34-7.45,0-13.55,3.94-18.3,11.82-.22.65-.65,1.62-1.29,2.91Z"/>
    <path class="cls-1" d="M546.45,248.7h.81c13.92,0,23.91,5.29,29.95,15.87,2.05,4.1,3.08,8.96,3.08,14.57v46.96l-.16.16h-15.22l-.16-.16v-47.12c0-6.58-2.75-10.95-8.26-13.12-2.38-1.08-5.4-1.62-9.07-1.62h-1.29c-6.48,0-11.12,1.03-13.92,3.08-3.56,2.16-5.34,6.21-5.34,12.14v46.63l-.16.16h-15.22l-.32-.16v-76.75c.11,0,.21-.05.32-.16h15.22l.16.16v4.37c2.81-1.51,6.42-2.91,10.85-4.21,2.37-.54,5.29-.81,8.74-.81Z"/>
    <path class="cls-1" d="M638.74,247.41c8.74,0,16.78,2.86,24.12,8.58.97.76,2.43,2.11,4.37,4.05,3.67,4.1,6.31,8.37,7.93,12.79,1.83,4.86,2.75,9.93,2.75,15.22,0,6.8-1.62,13.28-4.86,19.43-1.19,2.16-2.7,4.43-4.53,6.8-2.16,2.38-3.89,4.05-5.18,5.02-1.51,1.19-2.92,2.21-4.21,3.08-6.37,3.89-13.06,5.83-20.08,5.83h-.65c-7.34,0-14.36-2.16-21.05-6.48-1.29-.97-2.48-1.89-3.56-2.75-2.16-1.73-3.67-3.24-4.53-4.53-1.08-1.3-2.16-2.7-3.24-4.21-.97-1.73-1.89-3.4-2.75-5.02-2.48-5.61-3.72-11.17-3.72-16.68v-1.29c0-6.04,1.51-12.09,4.53-18.13.86-1.73,1.89-3.45,3.08-5.18.86-1.3,2.21-2.97,4.05-5.02,2.7-2.37,4.59-3.89,5.67-4.53,6.69-4.64,13.98-6.96,21.86-6.96ZM615.1,288.05c0,5.83,1.94,11.17,5.83,16.03,1.62,1.84,2.91,3.02,3.89,3.56,4.21,3.35,8.85,5.02,13.92,5.02,6.15,0,11.6-2.37,16.35-7.12,1.83-1.94,3.13-3.67,3.89-5.18,2.27-3.89,3.4-7.99,3.4-12.31v-.16c0-6.26-2.16-11.87-6.48-16.84-1.84-1.94-3.02-3.02-3.56-3.24-.97-.75-1.84-1.35-2.59-1.78-3.56-1.94-7.23-2.91-11.01-2.91-5.72,0-10.96,2.1-15.71,6.31-1.62,1.73-2.65,2.97-3.08,3.72-3.24,4.43-4.86,9.39-4.86,14.9Z"/>
  </g>
  <circle class="cls-2" cx="643" cy="214.33" r="14.75"/>
</svg>